<svg width="32" height="32" viewBox="0 0 32 32" fill="none" xmlns="http://www.w3.org/2000/svg">
<rect width="32" height="32" rx="10" fill="url(#paint0_linear_34_49)"/>
<path d="M21.2984 26C18.654 26 16.736 25.1899 15.5442 23.5698C14.3524 21.9311 13.7565 19.3892 13.7565 15.9441C13.7565 12.6108 14.371 10.1248 15.6 8.48603C16.8477 6.82868 18.7937 6 21.438 6C21.9594 6 22.4436 6.03724 22.8905 6.11173C23.3375 6.1676 23.682 6.23277 23.9241 6.30726C24.2593 6.40037 24.4827 6.54004 24.5945 6.72626C24.7248 6.89385 24.79 7.12663 24.79 7.42458C24.79 7.7784 24.7527 8.16015 24.6783 8.56983C24.6224 8.96089 24.52 9.3054 24.371 9.60335C24.2406 9.88268 24.0544 10.0223 23.8123 10.0223C23.6261 10.0223 23.3375 9.9851 22.9464 9.91061C22.5554 9.8175 22.1177 9.77095 21.6336 9.77095C20.4418 9.77095 19.5758 10.2644 19.0358 11.2514C18.4958 12.2197 18.2257 13.7933 18.2257 15.9721C18.2257 18.1695 18.5051 19.7616 19.0637 20.7486C19.6224 21.7169 20.5256 22.2011 21.7732 22.2011C22.3878 22.2011 22.8719 22.1546 23.2257 22.0615C23.5796 21.9497 23.8775 21.8939 24.1196 21.8939C24.3431 21.8939 24.52 22.0242 24.6503 22.2849C24.7993 22.5456 24.911 22.8622 24.9855 23.2346C25.06 23.6071 25.0973 23.9795 25.0973 24.352C25.0973 24.6313 25.0414 24.8734 24.9297 25.0782C24.8179 25.2831 24.5851 25.4507 24.2313 25.581C23.952 25.6741 23.5423 25.7672 23.0023 25.8603C22.4809 25.9534 21.9129 26 21.2984 26Z" fill="white"/>
<path d="M8.67598 25.8324C7.55866 25.8324 7 25.5251 7 24.9106V7.08938C7 6.47486 7.55866 6.16759 8.67598 6.16759H9.65363C10.771 6.16759 11.3296 6.47486 11.3296 7.08938V24.9106C11.3296 25.5251 10.771 25.8324 9.65363 25.8324H8.67598Z" fill="white"/>
<defs>
<linearGradient id="paint0_linear_34_49" x1="0" y1="0" x2="32" y2="32" gradientUnits="userSpaceOnUse">
<stop stop-color="#9173E1"/>
<stop offset="1" stop-color="#AF91FF"/>
</linearGradient>
</defs>
</svg>
